<svg width="206" height="52" viewBox="0 0 206 52" fill="none" xmlns="http://www.w3.org/2000/svg">
<path d="M27.8492 35.3007C27.8492 41.2098 22.654 46 16.2454 46C9.83679 46 4.6416 41.2098 4.6416 35.3007C4.6416 29.3917 15.2578 26.6921 16.2454 22.0189C16.8626 26.2002 27.8492 29.3917 27.8492 35.3007Z" fill="#3081F7"/>
<path d="M17.0331 22.2734C15.6757 20.4767 11.353 14.2096 12.6006 13.157C13.8482 12.1044 15.3066 11.3257 16.8798 10.8723C18.4529 10.4189 20.1051 10.301 21.7275 10.5264C23.3499 10.7517 24.9057 11.3153 26.2926 12.1799C27.6794 13.0445 28.8657 14.1906 29.7735 15.5426C30.6812 16.8947 31.2898 18.422 31.559 20.0241C31.8283 21.6261 31.7522 23.2666 31.3357 24.8373C30.9193 26.4081 30.4014 27.7174 29.3723 28.9811C29.3723 28.9811 26.2875 28.9811 23.2027 27.424C20.1043 25.86 17.0331 22.2734 17.0331 22.2734Z" fill="#3081F7"/>
<path d="M14.6837 22.2734C16.0411 20.4767 20.3638 14.2096 19.1162 13.157C17.8686 12.1044 16.4102 11.3257 14.837 10.8723C13.2639 10.4189 11.6117 10.301 9.98932 10.5264C8.36691 10.7517 6.81106 11.3153 5.42423 12.1799C4.0374 13.0445 2.85105 14.1906 1.94331 15.5426C1.03556 16.8947 0.42702 18.422 0.157748 20.0241C-0.111523 21.6261 -0.0354133 23.2666 0.381066 24.8373C0.797546 26.4081 1.31536 27.7174 2.34446 28.9811C2.34446 28.9811 5.42928 28.9811 8.51411 27.424C11.6125 25.86 14.6837 22.2734 14.6837 22.2734Z" fill="#3081F7"/>
<path d="M30.0775 33.3648C30.0775 35.2874 28.5309 36.717 26.9122 36.717C25.2936 36.717 23.9814 35.1585 23.9814 33.2359C23.9814 31.3133 27.7555 29.7548 29.3741 29.7548C30.5464 30.1416 30.0775 31.4422 30.0775 33.3648Z" fill="#3081F7"/>
<path d="M1.63978 33.3648C1.63978 35.2874 3.18641 36.717 4.80504 36.717C6.42368 36.717 7.73584 35.1585 7.73584 33.2359C7.73584 31.3133 3.96181 29.7548 2.34318 29.7548C1.17086 30.1416 1.63978 31.4422 1.63978 33.3648Z" fill="#3081F7"/>
<ellipse cx="15.8583" cy="11.5755" rx="7.34906" ry="6.57548" fill="#3081F7"/>
<path d="M22.6395 28.1991C24.57 29.3343 29.396 30.2172 29.396 30.2172V33.6226H16.245V22.0189C16.245 22.0189 18.4168 25.716 22.6395 28.1991Z" fill="#3081F7"/>
<path d="M9.07725 28.1991C7.14684 29.3343 2.3208 30.2172 2.3208 30.2172V33.6226H15.4718V22.0189C15.4718 22.0189 13.3 25.716 9.07725 28.1991Z" fill="#3081F7"/>
<path d="M14.6979 33.2359C14.6979 34.1591 14.2497 35.0446 13.4517 35.6974C12.6538 36.3503 11.5716 36.717 10.4432 36.717C9.31477 36.717 8.23257 36.3503 7.43466 35.6974C6.63674 35.0446 6.18848 34.1591 6.18848 33.2359L10.4432 33.2359H14.6979Z" fill="#11131C"/>
<path d="M25.528 33.2359C25.528 34.1591 25.0797 35.0446 24.2818 35.6974C23.4839 36.3503 22.4017 36.717 21.2733 36.717C20.1449 36.717 19.0626 36.3503 18.2647 35.6974C17.4668 35.0446 17.0186 34.1591 17.0186 33.2359L21.2733 33.2359H25.528Z" fill="#11131C"/>
<rect x="6.18848" y="32.8491" width="19.3396" height="0.773585" rx="0.386793" fill="#11131C"/>
<circle cx="11.217" cy="32.4623" r="1.16038" fill="#11131C"/>
<circle cx="21.2737" cy="32.4623" r="1.16038" fill="#11131C"/>
<path d="M17.0333 40.1981C17.4527 40.1981 17.806 40.5507 17.6455 40.9382V40.9382C17.5483 41.1729 17.4059 41.3861 17.2263 41.5656C17.0467 41.7452 16.8335 41.8877 16.5989 41.9849C16.3642 42.0821 16.1127 42.1321 15.8588 42.1321C15.6048 42.1321 15.3533 42.0821 15.1187 41.9849C14.884 41.8877 14.6708 41.7452 14.4912 41.5656C14.3117 41.3861 14.1692 41.1729 14.072 40.9382V40.9382C13.9115 40.5507 14.2648 40.1981 14.6843 40.1981L15.8588 40.1981H17.0333Z" fill="#11131C"/>
<path d="M48.76 40V12H67.16V16.36H54.16V23.68H65.96V27.88H54.16V35.64H67.16V40H48.76ZM79.4803 40.48C77.8536 40.48 76.4536 40.1467 75.2803 39.48C74.1336 38.7867 73.2536 37.7867 72.6403 36.48C72.027 35.1467 71.7203 33.5067 71.7203 31.56V19.84H77.1203V31C77.1203 32.6267 77.4536 33.8533 78.1203 34.68C78.8136 35.5067 79.867 35.92 81.2803 35.92C82.187 35.92 82.987 35.72 83.6803 35.32C84.3736 34.8933 84.9203 34.2933 85.3203 33.52C85.747 32.72 85.9603 31.7467 85.9603 30.6V19.84H91.3203V40H86.6003L86.1603 36.72C85.5736 37.8667 84.707 38.7867 83.5603 39.48C82.4136 40.1467 81.0536 40.48 79.4803 40.48ZM105.289 49.28C103.369 49.28 101.689 49.04 100.249 48.56C98.8088 48.1067 97.6888 47.4 96.8888 46.44C96.1154 45.5067 95.7288 44.3467 95.7288 42.96C95.7288 42.0267 95.9688 41.1467 96.4488 40.32C96.9288 39.4933 97.6221 38.7467 98.5288 38.08C99.4621 37.3867 100.622 36.8 102.009 36.32L104.049 38.96C102.822 39.36 101.929 39.8533 101.369 40.44C100.835 41.0533 100.569 41.7067 100.569 42.4C100.569 43.0133 100.769 43.5333 101.169 43.96C101.595 44.3867 102.155 44.6933 102.849 44.88C103.569 45.0933 104.369 45.2 105.249 45.2C106.102 45.2 106.835 45.0933 107.449 44.88C108.089 44.6667 108.582 44.3467 108.929 43.92C109.302 43.52 109.489 43.04 109.489 42.48C109.489 41.76 109.235 41.1733 108.729 40.72C108.222 40.2667 107.209 39.9867 105.689 39.88C104.329 39.7733 103.115 39.6267 102.049 39.44C101.009 39.2267 100.089 38.9867 99.2888 38.72C98.4888 38.4267 97.8088 38.1067 97.2488 37.76C96.7154 37.4133 96.2754 37.0667 95.9288 36.72V35.8L100.209 31.2L104.089 32.44L99.0488 37.4L100.569 34.76C100.862 34.92 101.142 35.08 101.409 35.24C101.702 35.3733 102.062 35.5067 102.489 35.64C102.915 35.7467 103.475 35.8533 104.169 35.96C104.862 36.0667 105.742 36.16 106.809 36.24C108.569 36.4 110.009 36.7333 111.129 37.24C112.275 37.7467 113.115 38.4267 113.649 39.28C114.182 40.1067 114.449 41.1333 114.449 42.36C114.449 43.56 114.115 44.68 113.449 45.72C112.809 46.7867 111.809 47.64 110.449 48.28C109.089 48.9467 107.369 49.28 105.289 49.28ZM105.289 34.04C103.609 34.04 102.155 33.72 100.929 33.08C99.7288 32.4133 98.7954 31.5333 98.1288 30.44C97.4888 29.32 97.1688 28.08 97.1688 26.72C97.1688 25.36 97.4888 24.1333 98.1288 23.04C98.7954 21.92 99.7288 21.0267 100.929 20.36C102.155 19.6933 103.609 19.36 105.289 19.36C106.995 19.36 108.449 19.6933 109.649 20.36C110.875 21.0267 111.809 21.92 112.449 23.04C113.089 24.1333 113.409 25.36 113.409 26.72C113.409 28.08 113.089 29.32 112.449 30.44C111.809 31.5333 110.875 32.4133 109.649 33.08C108.449 33.72 106.995 34.04 105.289 34.04ZM105.289 29.92C106.329 29.92 107.169 29.6533 107.809 29.12C108.449 28.5867 108.769 27.8 108.769 26.76C108.769 25.72 108.449 24.9333 107.809 24.4C107.169 23.84 106.329 23.56 105.289 23.56C104.275 23.56 103.435 23.84 102.769 24.4C102.129 24.9333 101.809 25.72 101.809 26.76C101.809 27.8 102.129 28.5867 102.769 29.12C103.435 29.6533 104.275 29.92 105.289 29.92ZM108.649 23.68L107.769 19.84H116.049V23.04L108.649 23.68ZM129.336 40.48C127.309 40.48 125.509 40.0533 123.936 39.2C122.389 38.32 121.176 37.1067 120.296 35.56C119.442 33.9867 119.016 32.1733 119.016 30.12C119.016 28.0133 119.442 26.16 120.296 24.56C121.176 22.9333 122.389 21.6667 123.936 20.76C125.482 19.8267 127.282 19.36 129.336 19.36C131.336 19.36 133.082 19.8 134.576 20.68C136.069 21.56 137.229 22.7467 138.056 24.24C138.882 25.7333 139.296 27.4267 139.296 29.32C139.296 29.5867 139.296 29.8933 139.296 30.24C139.296 30.56 139.269 30.8933 139.216 31.24H122.856V27.96H133.856C133.776 26.6533 133.309 25.6267 132.456 24.88C131.629 24.1333 130.589 23.76 129.336 23.76C128.429 23.76 127.589 23.9733 126.816 24.4C126.042 24.8 125.429 25.4267 124.976 26.28C124.549 27.1333 124.336 28.2133 124.336 29.52V30.68C124.336 31.7733 124.536 32.7333 124.936 33.56C125.362 34.36 125.949 34.9867 126.696 35.44C127.442 35.8667 128.309 36.08 129.296 36.08C130.282 36.08 131.096 35.8667 131.736 35.44C132.402 35.0133 132.896 34.4667 133.216 33.8H138.736C138.362 35.0533 137.736 36.1867 136.856 37.2C135.976 38.2133 134.896 39.0133 133.616 39.6C132.336 40.1867 130.909 40.48 129.336 40.48ZM143.718 40V19.84H148.478L148.878 23.12C149.491 22 150.358 21.0933 151.478 20.4C152.625 19.7067 153.985 19.36 155.558 19.36C157.238 19.36 158.651 19.7067 159.798 20.4C160.945 21.0933 161.811 22.1067 162.398 23.44C163.011 24.7733 163.318 26.4133 163.318 28.36V40H157.958V28.88C157.958 27.28 157.611 26.0533 156.918 25.2C156.251 24.3467 155.211 23.92 153.798 23.92C152.891 23.92 152.078 24.1333 151.358 24.56C150.665 24.9867 150.118 25.6 149.718 26.4C149.318 27.1733 149.118 28.12 149.118 29.24V40H143.718ZM168.526 40V12H173.926V40H168.526ZM177.544 40L187.784 12H193.904L204.104 40H198.384L190.824 18.16L183.224 40H177.544ZM182.064 33.64L183.504 29.44H197.744L199.144 33.64H182.064Z" fill="#E1E2EE"/>
</svg>
